<?xml version="1.0" encoding="utf-8"?>
<!-- Generator: Adobe Illustrator 26.2.1, SVG Export Plug-In . SVG Version: 6.00 Build 0)  -->
<svg version="1.1" id="Layer_1" xmlns="http://www.w3.org/2000/svg" xmlns:xlink="http://www.w3.org/1999/xlink" x="0px" y="0px"
	 viewBox="0 0 419.6 423.5" style="enable-background:new 0 0 419.6 423.5;" xml:space="preserve">
<style type="text/css">
	.st0{fill:#FFFFFF;}
</style>
<g id="Layer_2_00000109008969727269596560000014992165835626659744_">
	<g id="Layer_1-2">
		<path class="st0" d="M7.5,423.4c81.2-7.9,161.2-31.5,226-82.6c47.2-37.3,81.4-88.2,102.6-144.2c15.2-40.2,23.2-83.1,25.8-125.9
			c0.6-10,1-20.2,0.9-30.3c13.6,24.4,27.1,48.9,42.1,72.3c5.4,8.5,19.1,0.7,13.6-7.9c-20.8-32.7-38.9-67.4-58.2-101
			C357-1.6,349.8-1,346.5,3.8c-22.9,33.1-45.8,66.2-68.7,99.3c-5.8,8.4,7.8,16.3,13.5,8c18.5-26.7,37-53.5,55.5-80.2
			c3.8,62-9.9,128.3-35.2,183.7c-22.1,48.4-55.9,90.9-99,122.3c-59.5,43.4-132.6,63.6-205.1,70.7C-2.4,408.6-2.6,424.4,7.5,423.4z"
			/>
	</g>
</g>
</svg>
