<svg xmlns="http://www.w3.org/2000/svg" viewBox="0 0 226.32 128.18"><g id="Layer_2" data-name="Layer 2"><g id="Layer_1-2" data-name="Layer 1"><path d="M14.94,118.1C56.21,103.19,133.06,84.91,175,56.31c8.47-5.78,16.34-12.64,24.15-19.44-9.9,26.73-19.91,53.5-28.24,80.69-3,9.86,12.11,15.29,15.15,5.34,11.61-37.86,26.48-75,39.78-112.26,2.14-6-3.09-11.19-9-10.59Q155.51,6.32,94.15,12.62c-10.34,1.05-7.47,16.88,2.78,15.83L196,18.3C154.47,68.73,62.84,87.41,3,104.56-3.38,108.85.36,122.84,14.94,118.1Z"/></g></g></svg>