<svg xmlns="http://www.w3.org/2000/svg" viewBox="0 0 461.24 257.8"><g id="Layer_2" data-name="Layer 2"><g id="Layer_1-2" data-name="Layer 1"><path d="M367.45,5.45C315-7,259,3,210.2,23.82c-83.1,35.42-152.91,109-181.86,195Q21.8,170.2,15.25,121.55c-1.34-10-16.5-5.73-15.17,4.17q8.5,63.3,17,126.56c.88,6.49,9.22,6.72,13.16,3.46q53-43.74,106.08-87.47c7.83-6.45-3.37-17.53-11.14-11.12L42.87,225C69,146.26,130.22,80.89,204,44c43.22-21.62,92.26-31.71,140.43-26.59,23.05,2.45,45.68,9.8,65.26,22.19,16.57,10.5,35.57,27.46,35.8,48.59.11,10.15,15.84,10.15,15.73,0C460.76,42.16,405.76,14.53,367.45,5.45Z"/></g></g></svg>