<svg xmlns="http://www.w3.org/2000/svg" viewBox="0 0 419.6 423.45"><defs><style>.cls-1{fill:#c10202;}</style></defs><g id="Layer_2" data-name="Layer 2"><g id="Layer_1-2" data-name="Layer 1"><path class="cls-1" d="M7.49,423.4c81.21-7.91,161.2-31.48,226-82.62,47.18-37.29,81.45-88.17,102.55-144.16,15.16-40.19,23.21-83.06,25.75-125.88.6-10,1-20.2.89-30.35,13.6,24.38,27.15,48.86,42.09,72.35,5.41,8.53,19.09.71,13.61-7.88-20.78-32.72-38.94-67.39-58.23-101C357-1.56,349.8-1,346.51,3.78q-34.36,49.65-68.7,99.32c-5.8,8.37,7.81,16.3,13.54,8Q319.12,71,346.84,30.89c3.82,62-9.9,128.26-35.22,183.72-22.11,48.43-55.9,90.93-99,122.35-59.52,43.4-132.55,63.64-205.07,70.7C-2.42,408.64-2.6,424.38,7.49,423.4Z"/></g></g></svg>