<svg xmlns="http://www.w3.org/2000/svg" viewBox="0 0 143.21 534.04"><defs><style>.cls-1{fill:#c10202;}</style></defs><g id="Layer_2" data-name="Layer 2"><g id="Layer_1-2" data-name="Layer 1"><path class="cls-1" d="M60.43,10c-.62,12.43.52,411.29-1.68,453.56-.52,10-.51,20.21-.17,30.35-14.17-24.05-28.3-48.19-43.79-71.32-5.61-8.4-19.1-.26-13.42,8.2C22.92,463,41.9,497.19,62,530.35c3.23,5.34,10.41,4.57,13.58-.26q33.18-50.45,66.33-100.92c5.6-8.5-8.19-16.11-13.73-7.68L74.59,503C69.31,441.15,80,9.42,75.25,2.88,70.9-1.27,61-2.47,60.43,10Z"/></g></g></svg>