<svg xmlns="http://www.w3.org/2000/svg" viewBox="0 0 534.08 143.2"><defs><style>.cls-1{fill:#fff;}</style></defs><g id="Layer_2" data-name="Layer 2"><g id="Layer_1-2" data-name="Layer 1"><g id="Layer_2-2" data-name="Layer 2"><g id="Layer_1-2-2" data-name="Layer 1-2"><path class="cls-1" d="M10,82.78c12.43.61,411.29-.52,453.56,1.67,10,.52,20.21.51,30.35.18-24.05,14.17-48.19,28.3-71.32,43.79-8.4,5.61-.26,19.09,8.2,13.42,32.21-21.56,66.44-40.53,99.6-60.61,5.34-3.24,4.57-10.41-.26-13.59q-50.47-33.18-101-66.33c-8.5-5.59-16.11,8.2-7.68,13.73L503,68.62C441.15,73.9,9.42,63.24,2.88,68-1.27,72.31-2.47,82.16,10,82.78Z"/></g></g></g></g></svg>