<svg xmlns="http://www.w3.org/2000/svg" viewBox="0 0 419.65 423.45"><defs><style>.cls-1{fill:#fff;}</style></defs><g id="Layer_2" data-name="Layer 2"><g id="Layer_1-2" data-name="Layer 1"><g id="Layer_2-2" data-name="Layer 2"><g id="Layer_1-2-2" data-name="Layer 1-2"><path class="cls-1" d="M7.49,423.41c81.21-7.91,161.2-31.48,226-82.62C280.67,303.5,314.94,252.62,336,196.63c15.16-40.19,23.21-83.06,25.75-125.88.6-10,1-20.2.89-30.35,13.6,24.38,27.15,48.86,42.09,72.35,5.41,8.53,19.09.71,13.61-7.88-20.78-32.72-38.94-67.39-58.23-101C357-1.55,349.8-1,346.51,3.79q-34.35,49.65-68.7,99.32c-5.8,8.37,7.81,16.3,13.54,8Q319.13,71,346.84,30.9c3.82,62-9.9,128.26-35.22,183.72-22.11,48.43-55.9,90.93-99,122.35-59.52,43.4-132.55,63.64-205.07,70.7C-2.42,408.65-2.6,424.39,7.49,423.41Z"/></g></g></g></g></svg>