<svg viewBox="0 0 350.21 394.16" xmlns="http://www.w3.org/2000/svg"><path d="m24.64 262.18c-2.12 3.25-4.49 6.37-6.31 9.77a159.94 159.94 0 0 0 -8.62 17.72 63 63 0 0 0 -3.39 14.72c-.78 6.26-.9 12.61-1.14 18.92a22.47 22.47 0 0 0 .76 4.83c.11.62.45 1.21.51 1.82a3.31 3.31 0 0 1 -2.54 3.33c-1.73.34-2.67-.65-3-2.14a21.9 21.9 0 0 1 -.91-4.85c-.18-14.2.38-28.3 4.25-42.13 2.77-9.86 7.83-18.6 14-26.75 1.37-1.82 2.86-3.55 4.29-5.32l.89.57c-.54-1.66-1.1-3.31-1.64-5-7.58-23.4-5.19-45.37 9.41-65.6 4.07-5.64 8-11.4 12.24-16.9 3.89-5 4.76-10.87 4.84-16.82s-.34-11.87-.83-17.78c-.54-6.58.16-12.83 3.29-18.77a19.41 19.41 0 0 0 1.5-5 55.63 55.63 0 0 1 16.82-30.27 168.43 168.43 0 0 1 15.57-12.6 5.06 5.06 0 0 0 1.81-2.65 68.13 68.13 0 0 1 6.87-17.21 13.8 13.8 0 0 0 1.55-5.38c.51-6.45 3.46-11.51 8.21-15.71a64.69 64.69 0 0 1 16.2-10.47c6.94-3.15 14.15-5.71 21.73-6.64a52.12 52.12 0 0 0 14-3.62c9-3.71 18.18-2.68 26.75 2 5.44 2.94 10.72 6.23 15.94 9.55a45.57 45.57 0 0 1 5.46 4.69c1.51 1.34 2.88 2.87 4.5 4.06 7 5.09 10.47 12.09 11.51 20.87 4.2-3.85 8.92-3.32 13.51-1.58a108.19 108.19 0 0 1 13.33 6.03c8.82 4.8 17 10.53 23.62 18.22a5 5 0 0 0 .78.82c9 7.11 13.64 17 17.94 27.22a16.67 16.67 0 0 0 2.75 4.43c5.21 6 8.41 12.87 7.9 20.76-.56 8.8 3.19 15.38 9 21.24 3.83 3.85 7.86 7.52 11.74 11.34 4.11 4 7.64 8.52 8.78 14.34a52.8 52.8 0 0 1 1 9c.09 4.59 1.48 8.4 5.24 11.22 1.11.83 2.07 1.86 3.13 2.77 7.05 6.05 9 13.78 7.36 22.62a34.87 34.87 0 0 1 -2.15 7.65c-4.35 9.73-4 19.66-1.75 29.74 1.26 5.54 2.43 11.11 3.69 16.65a21.4 21.4 0 0 1 -1.3 13.4c-3.22 7.37-2.68 14.49.39 21.66 1.59 3.72 3.12 7.47 4.73 11.17a12.87 12.87 0 0 1 -.08 11.37c-1.9 3.83-4 7.58-5.9 11.41a22.19 22.19 0 0 0 -1.19 3.53c-.73 2.4-1.06 5-2.21 7.19-2.5 4.73-7.25 5.94-11.49 2.69-3.65-2.8-7.26-2.69-11-1.09a55.54 55.54 0 0 0 -7.62 4.21c-3.82 2.38-7.52 3.57-12.16 1.76-3.94-1.54-8.27-.52-12.38.25-7.45 1.38-14.83 3.3-22.33 4.3-7 .93-14.11 1-21.18 1.36a12.38 12.38 0 0 1 -2.27-.15c-8.26-1.08-12.33-6.44-10.69-14.63.86-4.31 2.45-8.47 3.7-12.7 2.46-8.33 4.91-16.67 7.6-25.79-1.75.84-2.71 1.25-3.63 1.74-8.81 4.72-17.41 9.88-26.46 14.07-12.85 5.94-26.42 8.58-40.66 6.43a29.52 29.52 0 0 0 -4 0c.91 2.21 1.66 4.06 2.42 5.91 2.87 7 4 14.31 5.08 21.72.73 5.11 2 10.14 3.12 15.21.26 1.23.67 2.44.93 3.67 1.57 7.66-2 13.41-9.77 14.75-8.46 1.45-16.67.46-24.08-4.33-2-1.31-3.88-2.84-5.85-4.21-2.7-1.88-5.35-3.85-8.17-5.53-3.6-2.14-5.07-1.88-7.89 1.33-1.83 2.09-3.34 4.45-5.08 6.62a107.27 107.27 0 0 1 -7.26 8.75c-3.07 3.11-5.35 2.84-8.36-.36-.09-.09-.17-.19-.25-.28-5.18-5.56-7.76-5.38-14.62-3.4-2.54.73-5.11 1.42-7.58 2.35-4.44 1.68-8.17 0-11.78-2.27-1.38-.87-2.64-1.94-4.26-3.16-1.26 1.15-2.6 2.28-3.82 3.51a3.3 3.3 0 0 1 -3.36 1.17 38.65 38.65 0 0 0 -4.78-.88c-5.48-.6-9.73-3.68-13.4-7.3-4.83-4.78-9.22-10.04-12.14-16.34-1.12-2.4-2.79-4.54-3.87-6.95-1.44-3.2-3.19-6.46-3.67-9.85-1-7-2.46-13.94-1.61-21.1.71-6 .87-12.09 1.61-18.1a57.25 57.25 0 0 1 5.54-17.67 38.69 38.69 0 0 0 3.9-17.2c-.06-3.88 1.04-7.8-1.26-11.95zm193-213.74a5.42 5.42 0 0 0 -.88 1.12c-2.25 5.21-6.21 8.84-10.82 11.91-2.11 1.4-4.09 3-6.16 4.44-4.69 3.27-9.08 6.76-11.92 11.93-4.09 7.44-10.72 10.94-19 12.24s-16.63 2.91-25.16.42c-3.56-1-7.54-1-11.31-.82s-7.39 1-9.49 4.61c-3.63 6.16-4.2 12.46.06 18.55a133.71 133.71 0 0 0 20.88 24 55.89 55.89 0 0 1 9.56 11.22c5.15 7.76 7.69 16.46 9.77 25.33a48.47 48.47 0 0 1 .12 21.83 51.15 51.15 0 0 1 -11.29 21.71 62.85 62.85 0 0 1 -16.53 14.41 44.86 44.86 0 0 0 -15.47 15.35c-6.52 10.28-6.23 21-1.91 31.92.88 2.23 2.15 4.33 2.82 6.61a30.07 30.07 0 0 0 10.52 15.44c7.92 6.28 16.15 12.18 24.24 18.26 2 1.52 4 3.14 6 4.64a5.88 5.88 0 0 0 2.57 1.28c3.65.37 7.31.61 11 .77 13.65.6 26.32-3.09 38.3-9.27 8.43-4.35 16.61-9.17 24.95-13.69a7.66 7.66 0 0 0 3.73-4.5 42.31 42.31 0 0 1 14.54-19.52c1.5-1.15 3-2.36 4.6-3.36a24.86 24.86 0 0 0 9.8-11.27c1-2.19 1.91-4.56 3.49-6.29 4.07-4.46 3.65-9.66 3.14-15-.06-.63-.42-1.28-.3-1.85a19 19 0 0 1 1-2.89 10.32 10.32 0 0 1 1.58.5c5.2 2.86 9.22 2.39 13.28-1.75 2.13-2.17 4.2-4.4 6.12-6.75 5.53-6.71 5.88-14.3 3.34-22.2-1.21-3.72-3.46-6.72-7.47-8a14.41 14.41 0 0 1 -6.85-5.21c-3.59-4.63-6.74-9.56-8.45-15.17-3.27-10.71-9.52-19.47-17.15-27.4-9-9.4-18.14-18.73-27.14-28.17-5.7-6-10.6-12.46-13.36-20.48-2.32-6.72-6.39-12.22-13-15.69-5.36-2.83-10.47-6.14-15.63-9.32-3.09-1.9-3.31-3.11-.53-5.49s6-4.18 8.9-6.41a137.09 137.09 0 0 0 11.1-9.11 14.28 14.28 0 0 0 4.38-8.88zm-87 180.31c3-2.12 5.56-3.79 8-5.6a55.59 55.59 0 0 0 19.2-26.15 22 22 0 0 0 1.16-10.48c-.66-5.13-1.25-10.28-1.92-15.42-1.65-12.63-8.3-22.53-17.17-31.22-3.07-3-6-6.16-9-9.24-.63-.65-1.29-1.25-2.49-2.4a58.26 58.26 0 0 1 2.07 6.93c1.08 6.91 4.23 12.89 7.84 18.74a27.45 27.45 0 0 1 3.62 7.86c2 8.4 2.84 16.91 1.14 25.53-1.29 6.57-2.4 13.17-3.51 19.77-.58 3.59-7.75 17.46-9 21.68zm49.28-149.82a11.71 11.71 0 0 0 -2 .16 92.37 92.37 0 0 1 -24.36 2.91c-3.16 0-6.34-.2-9.48.06-3.66.3-7.29 1-10.94 1.55l.05.84c.68.1 1.36.24 2.05.3 3.9.36 7.84.46 11.68 1.11a54.68 54.68 0 0 0 25.08-1.77c3-.9 6.08-1.83 7.92-5.16zm-39.7-68.35-.22-.58a13.35 13.35 0 0 0 -2.12.27c-3.62 1.08-7.25 2.17-10.84 3.35a65.58 65.58 0 0 0 -19.8 10.92c-2.94 2.3-5.59 5-6.87 9.36.86-.68 1.26-.94 1.59-1.27a62.89 62.89 0 0 1 25.53-16.43c4.38-1.5 8.51-3.74 12.73-5.62zm130.57 63.83c1.44 6.32 3 12.47 9.9 15-2.91-5.31-5.59-10.73-9.9-15z" fill="#000"/></svg>