<svg xmlns="http://www.w3.org/2000/svg" viewBox="0 0 395.53 395.53"><g id="Layer_2" data-name="Layer 2"><g id="portfolio_website" data-name="portfolio website"><path d="M89.55,0H305.9c.37.28.71.78,1.1.81a98.23,98.23,0,0,1,40,12.94A92.72,92.72,0,0,1,376.24,40a94.8,94.8,0,0,1,16.33,36.27c.94,4.47,2,8.92,3,13.38V306c-1,4.72-2.13,9.43-3.16,14.14a95.42,95.42,0,0,1-56.05,67.09c-11.3,4.8-23.06,8.13-35.27,8.18-64.49.25-129,.09-193.47.14-10.85,0-21.57-.35-32.24-3a98.7,98.7,0,0,1-43.53-22.83,93.63,93.63,0,0,1-23.5-33.37C3.52,325.05.18,313.3.14,301.08-.09,233.25,0,165.41.06,97.57c0-3,.44-6.09.73-9.12a97.5,97.5,0,0,1,13-40.06A92.81,92.81,0,0,1,40.42,18.9,96.73,96.73,0,0,1,76.5,2.82C80.85,1.87,85.2.94,89.55,0ZM26.08,197.61q0,50.22,0,100.43A52.62,52.62,0,0,0,27,308.31c3.38,17,10.69,31.7,24.05,43.23s28.59,17.68,45.79,17.77c67.21.35,134.42.16,201.64.11a49.53,49.53,0,0,0,9.88-.86c16.93-3.45,31.72-10.71,43.19-24.12,11.23-13.14,17.62-28.35,17.71-45.43.35-67.46.16-134.94.11-202.41a47.87,47.87,0,0,0-.89-9.48c-3.42-17-10.76-31.7-24.16-43.17-13-11.14-28.16-17.53-45.07-17.63-66.05-.39-132.1-.17-198.16-.13a93,93,0,0,0-10.66.75C72,29,56.63,36.81,44.36,50.78S26.21,81.09,26.12,99.5C26,132.2,26.08,164.91,26.08,197.61Z"/><path d="M75.87,280.37V122.2h4.19c17.77,0,35.54-.41,53.29.14,11.84.36,24,.53,34.66,7s16.86,16,18.89,28.47c1.8,11-1.81,20.33-8.17,28.65-3,3.9-7.59,6.57-11.22,9.6,4.19,2.46,9.06,4.89,13.45,8,7.72,5.48,11.92,13.48,13.41,22.57A47.37,47.37,0,0,1,188,259.48c-6.63,11-17.06,16.75-29.21,18.36-12.87,1.71-25.94,2.1-38.93,2.44C105.32,280.67,90.79,280.37,75.87,280.37ZM97.31,261c.83.1,1.33.22,1.82.22,13.26,0,26.52.32,39.77-.12a73.84,73.84,0,0,0,17.85-3c16.48-4.76,21.56-28,9.88-41-7-7.74-16.36-8.89-25.72-9.24-13.37-.5-26.77-.13-40.15-.12-1.11,0-2.22.15-3.45.24Zm.06-71.68c17.33-.77,34.21-1.15,51-2.41,8-.59,14.11-5.62,16.58-13.29,2.71-8.41,1.93-16.85-4.09-24-4.89-5.81-11.79-7-18.82-7.54-3.58-.28-7.2-.12-10.8-.12H97.37Z"/><path d="M320,227.83H234.88c.28,8.44,2.06,16.21,6.35,23.17,9.39,15.23,30,19.93,44.89,10.09,4.95-3.28,8.15-8.36,10.57-13.8.66-1.47,1.24-3,1.83-4.4l20.6,2.48c-3.91,11.76-9.14,22.28-20.05,29.14-10.55,6.64-22.2,8.62-34.27,8.09-16.7-.74-30.87-7.07-40.68-21.17-6-8.61-8.3-18.46-9.43-28.86-1.34-12.26-.41-24.18,3.82-35.63,7-19.06,20.62-30.31,41.08-33.1a54.08,54.08,0,0,1,30.81,4.27,46.24,46.24,0,0,1,20.74,19A56.6,56.6,0,0,1,319,213.4C319.19,218.07,319.63,222.74,320,227.83Zm-22-16.14c.07-17.1-10.08-29.47-25.54-31.62-20.39-2.84-35.57,11.46-36.44,31.62Z"/><path d="M234.45,137h64.87v15.56H234.45Z"/></g></g></svg>