<svg xmlns="http://www.w3.org/2000/svg" viewBox="0 0 408.74 408.83" fill="#000"><g id="Layer_2" data-name="Layer 2"><g id="portfolio_website" data-name="portfolio website"><path d="M311.33,408.83h-214c-3.73-.84-7.46-1.66-11.18-2.51a110.06,110.06,0,0,1-54.28-30,106.87,106.87,0,0,1-23.2-34.39C3.25,329.06,0,315.67,0,301.52.08,237.76,0,174,.1,110.25A131.08,131.08,0,0,1,1.67,91.4C5,68.91,15.37,49.82,30.89,33.45A105.54,105.54,0,0,1,66.27,8.9C78.85,3.51,92,0,105.83,0q98,0,196,0a96.67,96.67,0,0,1,29,4.72A108.3,108.3,0,0,1,382.6,38.94a107.06,107.06,0,0,1,22.86,44.61q1.65,6.9,3.28,13.81v214a7.35,7.35,0,0,0-.88,1.92,105.28,105.28,0,0,1-8.66,30.3,110.84,110.84,0,0,1-73.7,61.9C320.79,406.69,316.05,407.73,311.33,408.83ZM24.56,204.27q0,49.3,0,98.61c0,10.37,2.69,20.17,6.93,29.55,5.59,12.36,13.19,23.18,23.82,31.86A92.66,92.66,0,0,0,86.57,381c10.68,3.35,21.72,3.65,32.73,3.88,13,.27,26.08.12,39.12.06q71.37-.36,142.75-.76a73.8,73.8,0,0,0,26.08-4.88c17.13-6.49,31.21-16.94,41.75-32.1,11.28-16.2,15.87-34.4,15.84-53.77-.1-62.5-.47-125-.73-187.49a72,72,0,0,0-6.53-28.87c-7.56-17.13-19-31-35.39-40.51-12.43-7.2-25.56-12-40.11-12q-98.19,0-196.38,0c-10.1,0-19.69,2.59-28.84,6.62-17.15,7.56-31,19.09-40.42,35.48C29.33,79,24.6,92.05,24.57,106.46Q24.51,155.36,24.56,204.27Z"/><path d="M316,204.34c1.69,59.09-49.72,115.89-119.13,111.87-52.13-3-108.21-48.48-104.27-119.58,2.86-51.87,48.3-108.13,119.78-104C265.93,95.78,316.86,141.93,316,204.34Zm-24.52.15c.83-48.42-39.2-84.75-80.66-87.3-55.63-3.43-91.26,40.84-93.69,80.69-3.37,55.61,41,91.27,81.1,93.78C252.39,295.05,292.93,249.93,291.48,204.49Z"/><path d="M351.94,85.89c0,18.71-14.36,33.36-33,33.28s-33.07-13.3-33.41-33.25c-.31-18.07,14.29-33.73,34.64-33.21C337,53.14,352.36,67.57,351.94,85.89Zm-33,8.39a8.29,8.29,0,0,0,8.51-8.65,8.69,8.69,0,0,0-8.3-8.35,8.26,8.26,0,0,0-8.7,8.47C310.41,91,313.64,94.28,318.9,94.28Z"/></g></g></svg>