<svg viewBox="0 0 512 512" xmlns="http://www.w3.org/2000/svg" fill="#ffffff"><path d="m512 52v408c-.35 1.07-.79 2.11-1 3.2-5 22.3-18.17 37.56-39.61 45.54-3.68 1.36-7.56 2.19-11.35 3.26h-408.04a31.32 31.32 0 0 0 -3.2-1c-17.64-3.81-31.59-13.11-40.41-28.87-3.8-6.84-5.65-14.73-8.39-22.13v-408a18.75 18.75 0 0 0 1-2.72c3.17-16 11-29.45 24.81-38.13 7.91-4.99 17.4-7.51 26.19-11.15h408a31.49 31.49 0 0 0 3.21 1c17.69 3.73 31.58 13.12 40.4 28.87 3.81 6.83 5.65 14.73 8.39 22.13zm-256.1-12h-192.9c-15.2 0-23 7.81-23 23.13v385.87c0 15.2 7.83 23 23.14 23h385.91c15.18 0 22.95-7.84 22.95-23.15v-385.85c0-15.2-7.83-23-23.14-23z"/><path d="m421.82 422.75h-68.82v-5.59c0-37.33.06-74.66-.14-112a133 133 0 0 0 -1.94-21.35c-3.9-23.06-19.53-34-42.73-30.44-19 2.95-30.18 13.8-33.95 34.1a138.47 138.47 0 0 0 -2.14 24.32c-.23 35-.1 70-.1 105v5.83h-67.68v-225.36h67.48v29.81c3.19-4.12 5.38-7.37 8-10.24 13.63-15 31.12-22 50.87-23.48 17.27-1.3 34.32.31 50.36 7.55 20.18 9.11 31.15 25.8 35.66 46.58a206.85 206.85 0 0 1 5 40.54c.64 44 .29 88 .31 132 0 .78-.1 1.58-.18 2.73z"/><path d="m90.36 197.22h69.37v225.54h-69.37z"/><path d="m167 125.32a41 41 0 1 1 -40.68-41.32 41.08 41.08 0 0 1 40.68 41.32z"/></svg>