<svg xmlns="http://www.w3.org/2000/svg" viewBox="0 0 457.18 535.36"><defs><style>.cls-1{font-size:120px;fill:#c10202;font-family:Courier;}.cls-2{fill:#fff;}</style></defs><g id="Layer_2" data-name="Layer 2"><g id="portfolio_website" data-name="portfolio website"><text class="cls-1" transform="translate(0 443.52)">DNSIGN</text><path class="cls-2" d="M43.55,262.18c-2.12,3.25-4.48,6.37-6.31,9.77a163.56,163.56,0,0,0-8.62,17.72,63,63,0,0,0-3.39,14.72c-.78,6.26-.89,12.61-1.14,18.92a23.11,23.11,0,0,0,.76,4.83c.12.62.45,1.21.51,1.82a3.3,3.3,0,0,1-2.54,3.33c-1.73.34-2.66-.65-3-2.14A21.9,21.9,0,0,1,19,326.3c-.21-14.2.34-28.35,4.21-42.13,2.77-9.86,7.83-18.6,14-26.75,1.37-1.82,2.86-3.55,4.29-5.32l.9.57c-.55-1.66-1.11-3.31-1.64-5-7.59-23.4-5.2-45.37,9.4-65.6,4.07-5.64,8-11.4,12.24-16.9,3.89-5,4.76-10.87,4.84-16.82s-.34-11.87-.83-17.78c-.54-6.58.16-12.83,3.29-18.77a19,19,0,0,0,1.5-5A55.63,55.63,0,0,1,88,76.53a168.43,168.43,0,0,1,15.57-12.6,5,5,0,0,0,1.81-2.65,68.5,68.5,0,0,1,6.87-17.21,13.63,13.63,0,0,0,1.55-5.38c.51-6.45,3.46-11.51,8.22-15.71a64.33,64.33,0,0,1,16.2-10.47,74.9,74.9,0,0,1,21.68-6.64,52.29,52.29,0,0,0,14-3.62c9-3.71,18.17-2.68,26.74,2,5.45,2.94,10.72,6.23,15.94,9.55A44.8,44.8,0,0,1,222,18.44c1.52,1.34,2.88,2.87,4.51,4.06,7,5.09,10.47,12.09,11.5,20.87,4.21-3.85,8.92-3.32,13.51-1.58A108.19,108.19,0,0,1,265,47.87c8.83,4.8,17,10.53,23.62,18.22a6.08,6.08,0,0,0,.78.82c9,7.11,13.65,17,17.94,27.22a17,17,0,0,0,2.76,4.43c5.2,6,8.4,12.87,7.9,20.76-.56,8.8,3.18,15.38,9,21.24,3.84,3.85,7.86,7.52,11.74,11.34,4.11,4,7.64,8.52,8.78,14.34a52.81,52.81,0,0,1,1,9c.09,4.59,1.47,8.4,5.24,11.22,1.11.83,2.07,1.86,3.12,2.77,7.06,6.05,9,13.78,7.36,22.62a34.33,34.33,0,0,1-2.15,7.65c-4.35,9.73-4,19.66-1.74,29.74,1.25,5.54,2.43,11.11,3.68,16.65a21.33,21.33,0,0,1-1.3,13.4c-3.22,7.37-2.67,14.49.39,21.66,1.59,3.72,3.12,7.47,4.74,11.17a12.9,12.9,0,0,1-.09,11.37c-1.9,3.83-4,7.58-5.89,11.41a21.26,21.26,0,0,0-1.2,3.53c-.73,2.4-1.06,5-2.21,7.19-2.5,4.73-7.25,5.94-11.49,2.69-3.65-2.8-7.26-2.69-11-1.09a55.65,55.65,0,0,0-7.63,4.21c-3.82,2.38-7.52,3.57-12.15,1.76-3.94-1.54-8.28-.52-12.39.25-7.45,1.38-14.82,3.3-22.32,4.3-7,.93-14.12,1-21.19,1.36A12.38,12.38,0,0,1,258,359c-8.25-1.08-12.33-6.44-10.69-14.63.86-4.31,2.46-8.47,3.71-12.7,2.46-8.33,4.91-16.67,7.59-25.79-1.75.84-2.71,1.25-3.63,1.74-8.81,4.72-17.41,9.88-26.46,14.07-12.85,5.94-26.42,8.58-40.66,6.43a29.52,29.52,0,0,0-4,0c.91,2.21,1.66,4.06,2.43,5.91,2.87,7,4,14.31,5.07,21.72.74,5.11,2,10.14,3.12,15.21.27,1.23.67,2.44.93,3.67,1.57,7.66-2,13.41-9.77,14.75-8.45,1.45-16.67.46-24.07-4.33-2-1.31-3.89-2.84-5.86-4.21-2.7-1.88-5.34-3.85-8.16-5.53-3.61-2.14-5.08-1.88-7.9,1.33-1.83,2.09-3.34,4.45-5.07,6.62a109.48,109.48,0,0,1-7.27,8.75c-3.06,3.11-5.34,2.84-8.36-.36-.09-.09-.17-.19-.25-.28-5.18-5.56-7.75-5.38-14.61-3.4-2.55.73-5.12,1.42-7.59,2.35C92,392,88.31,390.29,84.7,388c-1.39-.87-2.64-1.94-4.27-3.16-1.26,1.15-2.59,2.28-3.82,3.51a3.29,3.29,0,0,1-3.36,1.17,38.65,38.65,0,0,0-4.78-.88c-5.48-.6-9.73-3.68-13.4-7.3C50.22,376.56,45.83,371.3,42.9,365c-1.12-2.4-2.79-4.54-3.88-6.95-1.44-3.2-3.19-6.46-3.67-9.85-1-7-2.46-13.94-1.61-21.1.71-6,.87-12.09,1.61-18.1a57.25,57.25,0,0,1,5.52-17.67,38.7,38.7,0,0,0,3.91-17.2C44.75,270.25,45.85,266.33,43.55,262.18Zm193-213.74a5.42,5.42,0,0,0-.88,1.12c-2.25,5.21-6.21,8.84-10.82,11.91-2.1,1.4-4.09,3-6.16,4.44-4.68,3.27-9.08,6.76-11.92,11.93-4.08,7.44-10.71,10.94-19,12.24s-16.64,2.91-25.17.42c-3.56-1-7.54-1-11.3-.82s-7.4,1-9.5,4.61c-3.63,6.16-4.2,12.46.07,18.55a133.32,133.32,0,0,0,20.88,24,55.85,55.85,0,0,1,9.55,11.22c5.15,7.76,7.69,16.46,9.77,25.33a48.62,48.62,0,0,1,.13,21.83A51.28,51.28,0,0,1,171,216.93a62.81,62.81,0,0,1-16.52,14.41A44.69,44.69,0,0,0,139,246.69c-6.53,10.28-6.24,21-1.92,31.92.89,2.23,2.16,4.33,2.82,6.61a30.07,30.07,0,0,0,10.52,15.44c7.93,6.28,16.15,12.18,24.24,18.26,2,1.52,3.95,3.14,6,4.64a5.79,5.79,0,0,0,2.56,1.28c3.65.37,7.32.61,11,.77,13.65.6,26.33-3.09,38.3-9.27,8.43-4.35,16.61-9.17,25-13.69a7.74,7.74,0,0,0,3.73-4.5,42.29,42.29,0,0,1,14.53-19.52c1.51-1.15,3-2.36,4.6-3.36A24.94,24.94,0,0,0,290.07,264c1-2.19,1.91-4.56,3.48-6.29,4.07-4.46,3.65-9.66,3.14-15-.06-.63-.42-1.28-.3-1.85a20.07,20.07,0,0,1,1.05-2.89,9.93,9.93,0,0,1,1.58.5c5.2,2.86,9.23,2.39,13.29-1.75,2.12-2.17,4.19-4.4,6.12-6.75,5.52-6.71,5.88-14.3,3.33-22.2-1.2-3.72-3.45-6.72-7.46-8a14.31,14.31,0,0,1-6.85-5.21c-3.6-4.63-6.75-9.56-8.46-15.17-3.27-10.71-9.51-19.47-17.15-27.4-9-9.4-18.14-18.73-27.13-28.17-5.71-6-10.61-12.46-13.37-20.48-2.32-6.72-6.39-12.22-13-15.69-5.36-2.83-10.46-6.14-15.63-9.32-3.09-1.9-3.31-3.11-.53-5.49s6-4.18,8.9-6.41a137.09,137.09,0,0,0,11.1-9.11A14.28,14.28,0,0,0,236.52,48.44Zm-87,180.31c3-2.12,5.56-3.79,8-5.6A55.46,55.46,0,0,0,176.75,197a22,22,0,0,0,1.2-10.45c-.67-5.13-1.26-10.28-1.93-15.42-1.65-12.63-8.3-22.53-17.17-31.22-3.06-3-6-6.16-9-9.24-.63-.65-1.29-1.25-2.48-2.4a58,58,0,0,1,2.06,6.93c1.08,6.91,4.23,12.89,7.84,18.74a27.45,27.45,0,0,1,3.62,7.86c2,8.4,2.84,16.91,1.14,25.53-1.29,6.57-2.39,13.17-3.51,19.77C157.94,210.66,150.75,224.53,149.5,228.75ZM198.83,78.93a11.8,11.8,0,0,0-2,.16A92.32,92.32,0,0,1,172.47,82c-3.16,0-6.33-.2-9.47.06-3.67.3-7.3,1-10.95,1.55l0,.84c.68.1,1.37.24,2.05.3,3.9.36,7.84.46,11.69,1.11a54.64,54.64,0,0,0,25.09-1.78C194,83.19,197,82.26,198.83,78.93ZM159.14,10.58l-.23-.63a13.5,13.5,0,0,0-2.12.27c-3.62,1.08-7.25,2.17-10.84,3.35a65.41,65.41,0,0,0-19.79,10.92c-3,2.3-5.6,5-6.88,9.36a18.67,18.67,0,0,0,1.59-1.27A63,63,0,0,1,146.4,16.15C150.78,14.7,154.9,12.46,159.14,10.58ZM289.7,74.41c1.44,6.32,3,12.47,9.91,15C296.69,84.1,294,78.68,289.7,74.41Z"/></g></g></svg>