<svg xmlns="http://www.w3.org/2000/svg" viewBox="0 0 998.57 1321.32"><defs><style>.cls-1,.cls-2{fill:#fff;}.cls-2{font-size:258.33px;font-family:LyonDisplay-Regular, Lyon Display;}.cls-3{letter-spacing:-0.02em;}.cls-4{letter-spacing:0em;}.cls-5{letter-spacing:-0.01em;}</style></defs><g id="Layer_2" data-name="Layer 2"><g id="Layer_3" data-name="Layer 3"><path class="cls-1" d="M67.61,719.37c-5.82,8.91-12.31,17.46-17.31,26.8-8.5,15.9-17.2,31.85-23.66,48.61-4.92,12.79-7.59,26.72-9.3,40.39-2.14,17.18-2.46,34.59-3.12,51.92-.17,4.39,1.26,8.85,2.08,13.26.31,1.69,1.22,3.3,1.39,5,.4,4-3,8.36-7,9.14-4.73.92-7.31-1.79-8.33-5.88-1.1-4.36-2.21-8.86-2.28-13.31-.6-39,.92-77.78,11.54-115.59,7.6-27.07,21.5-51,38.28-73.41,3.75-5,7.84-9.74,11.78-14.6l2.45,1.57c-1.5-4.54-3-9.07-4.5-13.61-20.82-64.2-14.26-124.48,25.8-180,11.18-15.48,21.92-31.29,33.59-46.38,10.67-13.81,13.06-29.82,13.28-46.16s-.93-32.55-2.27-48.77c-1.49-18.06.43-35.22,9-51.49,2.21-4.19,3.13-9.15,4.11-13.86,6.75-32.53,21.67-60,46.29-83,13.53-12.63,27.93-23.73,42.72-34.59a13.83,13.83,0,0,0,5-7.27c4-16.68,10.57-32.22,18.84-47.2a37.51,37.51,0,0,0,4.26-14.78c1.41-17.69,9.5-31.58,22.54-43.1a176.89,176.89,0,0,1,44.45-28.74c19-8.62,38.8-15.64,59.5-18.22A143.47,143.47,0,0,0,425.1,6.18C449.67-4,475-1.18,498.47,11.51c14.95,8.08,29.42,17.09,43.75,26.23,5.5,3.5,10.06,8.47,15,12.85,4.15,3.68,7.9,7.89,12.36,11.14,19.17,14,28.73,33.17,31.57,57.26,11.53-10.57,24.47-9.1,37.06-4.33a298.93,298.93,0,0,1,36.89,16.68c24.2,13.17,46.63,28.89,64.79,50A17.09,17.09,0,0,0,742,183.6c24.61,19.5,37.45,46.7,49.23,74.67a45.7,45.7,0,0,0,7.56,12.14c14.28,16.38,23.05,35.33,21.68,57-1.54,24.16,8.74,42.21,24.72,58.27,10.53,10.58,21.57,20.65,32.22,31.12,11.29,11.1,21,23.38,24.09,39.36a144.34,144.34,0,0,1,2.81,24.76c.25,12.59,4.06,23.05,14.38,30.8,3,2.28,5.68,5.11,8.58,7.6,19.35,16.59,24.72,37.81,20.18,62.06-1.33,7.13-3,14.42-5.9,21-11.92,26.69-11.06,53.93-4.78,81.59,3.46,15.22,6.67,30.48,10.11,45.7a58.44,58.44,0,0,1-3.57,36.75c-8.83,20.23-7.33,39.76,1.07,59.44,4.37,10.2,8.56,20.48,13,30.66,4.56,10.47,4.87,20.91-.23,31.18-5.22,10.52-10.92,20.8-16.18,31.3-1.51,3-2.29,6.42-3.28,9.69-2,6.59-2.9,13.75-6.06,19.72-6.87,13-19.9,16.3-31.52,7.39-10-7.69-19.93-7.37-30.29-3-7.29,3.1-14.16,7.33-20.91,11.55-10.49,6.53-20.63,9.81-33.36,4.83-10.8-4.23-22.71-1.43-34,.67-20.45,3.82-40.68,9.08-61.26,11.82-19.2,2.55-38.73,2.63-58.13,3.73A33.46,33.46,0,0,1,656,985c-22.65-3-33.83-17.67-29.33-40.14C629,933,633.38,921.58,636.81,910c6.75-22.87,13.47-45.74,20.84-70.75-4.8,2.29-7.44,3.42-10,4.77-24.17,12.94-47.76,27.1-72.6,38.58-35.24,16.31-72.49,23.56-111.56,17.66-3.28-.5-6.71-.07-11-.07,2.49,6.07,4.56,11.15,6.65,16.23,7.88,19.11,11,39.27,13.93,59.59,2,14,5.61,27.84,8.56,41.73.72,3.39,1.84,6.69,2.54,10.08,4.32,21-5.51,36.79-26.8,40.46-23.2,4-45.73,1.27-66.05-11.89-5.53-3.58-10.66-7.77-16.07-11.54-7.4-5.16-14.66-10.57-22.4-15.17-9.89-5.88-13.93-5.16-21.67,3.65-5,5.72-9.16,12.21-13.92,18.17-6.48,8.13-12.65,16.62-19.93,24-8.41,8.53-14.67,7.8-22.94-1-.24-.25-.46-.52-.7-.78-14.21-15.24-21.26-14.74-40.09-9.33-7,2-14,3.91-20.8,6.47-12.18,4.6-22.41,0-32.32-6.22-3.79-2.4-7.24-5.35-11.7-8.68-3.46,3.16-7.12,6.24-10.47,9.63-2.64,2.67-5.32,4.15-9.23,3.2a106.05,106.05,0,0,0-13.11-2.41c-15-1.64-26.7-10.11-36.77-20-13.31-13.13-25.34-27.57-33.41-44.85-3.06-6.58-7.65-12.46-10.63-19.07-4-8.78-8.75-17.71-10.06-27-2.7-19.13-6.77-38.24-4.43-57.89,2-16.5,2.4-33.18,4.43-49.66,2.08-17,7.79-33.14,15.13-48.5A106,106,0,0,0,71,752.14C70.89,741.5,73.91,730.75,67.61,719.37ZM597.06,132.9a15.46,15.46,0,0,0-2.41,3.09c-6.18,14.28-17,24.23-29.69,32.66-5.78,3.85-11.21,8.2-16.91,12.18-12.84,9-24.89,18.55-32.69,32.75-11.22,20.42-29.4,30-52.09,33.57-23.06,3.62-45.64,8-69.06,1.17-9.75-2.84-20.68-2.69-31-2.26-10.08.42-20.28,2.87-26,12.66-10,16.9-11.54,34.19.17,50.9,16.76,23.93,35.28,46.4,57.29,65.82a153.7,153.7,0,0,1,26.21,30.76c14.14,21.31,21.11,45.16,26.82,69.5a133.38,133.38,0,0,1,.33,59.92c-5,22.31-16.15,42.14-30.82,59.57-13,15.45-27.64,29.38-45.34,39.54-17.94,10.3-31.53,24.89-42.48,42.13-17.89,28.19-17.11,57.59-5.24,87.57,2.42,6.12,5.9,11.88,7.72,18.15,5,17.35,15.06,31.44,28.87,42.37,21.75,17.22,44.32,33.41,66.5,50.09,5.54,4.16,10.85,8.62,16.43,12.72,2.1,1.55,4.59,3.29,7,3.54,10,1,20.07,1.66,30.12,2.1C518.24,895,553,884.92,585.87,868,609,856,631.45,842.8,654.34,830.39c5.28-2.85,8.25-6.86,10.23-12.35,7.91-21.81,21.46-39.52,39.88-53.55,4.14-3.16,8.21-6.46,12.62-9.2A68.28,68.28,0,0,0,744,724.34c2.68-6,5.24-12.5,9.55-17.23,11.18-12.26,10-26.53,8.63-41.09-.16-1.72-1.16-3.52-.83-5.08.57-2.71,1.87-5.27,2.88-7.92a30.68,30.68,0,0,1,4.35,1.36c14.27,7.87,25.3,6.55,36.44-4.8,5.83-5.94,11.5-12.08,16.79-18.5,15.16-18.42,16.14-39.26,9.15-60.92-3.3-10.22-9.48-18.46-20.48-22-7.86-2.55-13.79-7.84-18.79-14.28-9.87-12.7-18.5-26.24-23.21-41.64-9-29.37-26.1-53.42-47-75.18-24.81-25.77-49.78-51.38-74.46-77.27-15.65-16.43-29.09-34.2-36.67-56.2-6.36-18.44-17.54-33.53-35.64-43.06-14.71-7.75-28.71-16.84-42.89-25.57-8.47-5.21-9.08-8.53-1.44-15.05s16.47-11.49,24.41-17.61c10.41-8,21-15.93,30.46-25A39.11,39.11,0,0,0,597.06,132.9ZM358.29,627.62c8.32-5.81,15.26-10.38,21.9-15.34,24.91-18.57,42.3-42.73,52.87-71.85a60.05,60.05,0,0,0,3.29-28.65c-1.83-14.1-3.44-28.22-5.29-42.31-4.53-34.68-22.76-61.82-47.1-85.68-8.41-8.24-16.41-16.91-24.62-25.36-1.71-1.76-3.54-3.42-6.81-6.58,2.38,7.84,4.76,13.31,5.66,19,3,19,11.61,35.36,21.52,51.42,4.14,6.71,8.14,14,9.94,21.56,5.47,23.06,7.78,46.4,3.12,70.06-3.55,18-6.58,36.13-9.64,54.23C381.46,578,361.72,616.07,358.29,627.62ZM493.65,216.56a31.49,31.49,0,0,0-5.42.46c-21.89,6.09-44.3,7.87-66.9,8-8.67,0-17.38-.56-26,.15-10.06.83-20,2.78-30,4.25l.13,2.31c1.88.29,3.75.67,5.64.84,10.69,1,21.5,1.24,32.06,3,23.42,4,46.28,1.88,68.85-4.86C480.25,228.26,488.6,225.7,493.65,216.56ZM384.74,29l-.62-1.73a34.84,34.84,0,0,0-5.81.74c-9.94,3-19.89,6-29.75,9.19-20,6.56-37.84,17.13-54.31,30-8.07,6.3-15.36,13.58-18.87,25.68,2.38-1.89,3.48-2.59,4.36-3.5,19.88-20.42,42.71-36,70.07-45.09C361.82,40.33,373.12,34.19,384.74,29ZM743,204.16c4,17.35,8.34,34.21,27.18,41.06C762.15,230.76,754.8,215.87,743,204.16Z"/><text class="cls-2" transform="translate(28.31 1254.67)"><tspan class="cls-3">D</tspan><tspan class="cls-4" x="190.39" y="0">N</tspan><tspan x="375.86" y="0">S</tspan><tspan class="cls-5" x="510.45" y="0">I</tspan><tspan x="593.63" y="0">GN</tspan></text></g></g></svg>